<svg xmlns="http://www.w3.org/2000/svg" width="10" height="9" viewBox="0 0 10 9">
  <g id="Group_6" data-name="Group 6" transform="translate(0 -31)">
    <path id="Path_19" data-name="Path 19" d="M5.926,31.61A3.96,3.96,0,0,0,3.809,31,3.715,3.715,0,0,0,0,34.613a3.455,3.455,0,0,0,.623,1.982L.053,38.436a.3.3,0,0,0,.279.392A.286.286,0,0,0,.465,38.8L2.2,37.889q.105.047.213.087A4.059,4.059,0,0,1,1.8,35.817,4.293,4.293,0,0,1,5.926,31.61Z" fill="#8b8b8b"/>
    <path id="Path_20" data-name="Path 20" d="M128.994,96.595a3.455,3.455,0,0,0,.623-1.982,3.814,3.814,0,1,0-3.809,3.613,4,4,0,0,0,1.609-.337l1.735.907a.287.287,0,0,0,.322-.039.306.306,0,0,0,.089-.321Zm-4.377-1.681a.3.3,0,1,1,.293-.3A.3.3,0,0,1,124.617,94.914Zm1.172,0a.3.3,0,1,1,.293-.3A.3.3,0,0,1,125.789,94.914Zm1.172,0a.3.3,0,1,1,.293-.3A.3.3,0,0,1,126.961,94.914Z" transform="translate(-119.617 -58.828)" fill="#8b8b8b"/>
  </g>
</svg>
